<?xml version="1.0" encoding="UTF-8" standalone="no"?>
<!-- Created with Inkscape (http://www.inkscape.org/) -->

<svg
   xmlns:dc="http://purl.org/dc/elements/1.1/"
   xmlns:cc="http://creativecommons.org/ns#"
   xmlns:rdf="http://www.w3.org/1999/02/22-rdf-syntax-ns#"
   xmlns:svg="http://www.w3.org/2000/svg"
   xmlns="http://www.w3.org/2000/svg"
   xmlns:sodipodi="http://sodipodi.sourceforge.net/DTD/sodipodi-0.dtd"
   xmlns:inkscape="http://www.inkscape.org/namespaces/inkscape"
   version="1.1"
   id="svg2"
   xml:space="preserve"
   width="816"
   height="816"
   viewBox="0 0 816 816"
   sodipodi:docname="comptia.svg"
   inkscape:version="0.92.2 2405546, 2018-03-11"><metadata
     id="metadata8"><rdf:RDF><cc:Work
         rdf:about=""><dc:format>image/svg+xml</dc:format><dc:type
           rdf:resource="http://purl.org/dc/dcmitype/StillImage" /><dc:title></dc:title></cc:Work></rdf:RDF></metadata><defs
     id="defs6"><clipPath
       clipPathUnits="userSpaceOnUse"
       id="clipPath18"><path
         d="M 0,792 H 612 V 0 H 0 Z"
         id="path16"
         inkscape:connector-curvature="0" /></clipPath></defs><sodipodi:namedview
     pagecolor="#ffffff"
     bordercolor="#666666"
     borderopacity="1"
     objecttolerance="10"
     gridtolerance="10"
     guidetolerance="10"
     inkscape:pageopacity="0"
     inkscape:pageshadow="2"
     inkscape:window-width="1280"
     inkscape:window-height="984"
     id="namedview4"
     showgrid="false"
     inkscape:snap-page="true"
     inkscape:zoom="0.31602154"
     inkscape:cx="393.69532"
     inkscape:cy="438.7137"
     inkscape:window-x="0"
     inkscape:window-y="0"
     inkscape:window-maximized="1"
     inkscape:current-layer="g10" /><g
     id="g10"
     inkscape:groupmode="layer"
     inkscape:label="comptia"
     transform="matrix(1.3333333,0,0,-1.3333333,-1.6148667,928.96962)"><g
       id="g12"><g
         id="g14"
         clip-path="url(#clipPath18)"><g
           id="g20"
           transform="translate(475.2588,392.2188)"><path
             d="m 0,0 0.311,0.673 13.34,28.923 1.532,3.325 1.532,-3.325 L 21.559,19.103 30.062,0.673 30.371,0 Z m 42.67,1.484 -6.12,13.263 -12.453,27.004 -0.006,0.012 -0.834,1.805 -0.006,0.018 c -1.645,2.724 -4.642,4.541 -8.063,4.541 -3.467,0 -6.495,-1.865 -8.115,-4.636 L 6.316,41.858 6.305,41.84 6.299,41.822 6.293,41.805 -6.185,14.747 -12.315,1.448 -12.983,0 -27.552,-31.58 h 0.06 c 7.877,0 14.7,4.48 18.007,11.005 l 0.601,1.311 3.731,8.092 h 40.678 l 3.414,-7.406 0.012,-0.025 1.168,-2.543 0.025,-0.042 0.005,-0.012 v -0.006 c 3.414,-6.18 10.028,-10.374 17.625,-10.374 h 0.143 z"
             style="fill:#eb1e25;fill-opacity:1;fill-rule:nonzero;stroke:none"
             id="path22"
             inkscape:connector-curvature="0" /></g><g
           id="g24"
           transform="translate(536.8691,371.123)"><path
             d="m 0,0 c 0.545,0 0.988,0.071 1.329,0.214 0.318,0.133 0.477,0.429 0.477,0.888 0,0.653 -0.544,0.979 -1.636,0.979 H -1.363 V 0 Z m -1.363,-3.732 h -1.124 v 6.655 h 2.862 c 0.862,0 1.51,-0.149 1.941,-0.444 C 2.749,2.173 2.965,1.692 2.965,1.04 2.965,0.48 2.795,0.046 2.454,-0.261 2.101,-0.546 1.641,-0.729 1.073,-0.812 l 2.096,-2.92 H 1.891 l -1.959,2.891 h -1.295 z m -3.186,0.871 c 0.466,-0.755 1.102,-1.337 1.908,-1.745 0.807,-0.418 1.687,-0.626 2.641,-0.626 0.955,0 1.835,0.208 2.641,0.626 0.806,0.418 1.443,1.005 1.909,1.759 0.454,0.745 0.679,1.562 0.679,2.45 C 5.229,0.245 5.1,0.872 4.838,1.484 4.576,2.056 4.209,2.571 3.73,3.03 3.265,3.468 2.704,3.811 2.045,4.056 1.396,4.3 0.716,4.422 0,4.422 -0.704,4.422 -1.38,4.306 -2.027,4.07 -2.675,3.825 -3.242,3.483 -3.73,3.045 -4.22,2.605 -4.594,2.092 -4.855,1.5 -4.991,1.173 -5.088,0.872 -5.145,0.597 -5.213,0.28 -5.247,-0.051 -5.247,-0.397 c 0,-0.888 0.232,-1.71 0.698,-2.464 m 2.045,-2.908 c -0.818,0.296 -1.517,0.705 -2.096,1.224 -0.613,0.54 -1.089,1.169 -1.43,1.883 -0.353,0.703 -0.529,1.459 -0.529,2.265 0,0.815 0.176,1.575 0.529,2.28 0.341,0.714 0.823,1.336 1.447,1.866 0.603,0.51 1.301,0.913 2.096,1.209 C -1.715,5.233 -0.885,5.371 0,5.371 0.897,5.371 1.738,5.228 2.522,4.943 3.283,4.667 3.976,4.264 4.601,3.733 5.18,3.224 5.65,2.605 6.015,1.883 6.355,1.169 6.525,0.408 6.525,-0.397 6.525,-1.51 6.23,-2.499 5.64,-3.367 5.048,-4.233 4.248,-4.922 3.237,-5.433 2.227,-5.941 1.146,-6.197 0,-6.197 c -0.897,0 -1.732,0.143 -2.504,0.428"
             style="fill:#eb1e25;fill-opacity:1;fill-rule:nonzero;stroke:none"
             id="path26"
             inkscape:connector-curvature="0" /></g><g
           id="g28"
           transform="translate(444.9756,428.5771)"><path
             d="m 0,0 v -67.521 c -6.5,0 -11.768,5.266 -11.768,11.767 V 11.769 C -5.267,11.769 0,6.501 0,0"
             style="fill:#eb1e25;fill-opacity:1;fill-rule:nonzero;stroke:none"
             id="path30"
             inkscape:connector-curvature="0" /></g><g
           id="g32"
           transform="translate(430.3779,440.2588)"><path
             d="m 0,0 c 0,-6.447 -5.226,-11.672 -11.667,-11.672 h -24.531 v -67.445 c -6.501,0 -11.769,5.266 -11.769,11.767 v 55.678 h -24.531 c -6.441,0 -11.667,5.225 -11.667,11.672 z"
             style="fill:#eb1e25;fill-opacity:1;fill-rule:nonzero;stroke:none"
             id="path34"
             inkscape:connector-curvature="0" /></g><g
           id="g36"
           transform="translate(366.7227,389.6025)"><path
             d="m 0,0 c 0,-15.85 -13.926,-28.696 -31.109,-28.696 -3.546,0 -6.954,0.548 -10.13,1.555 -5.935,3.42 -8.079,10.803 -4.809,16.494 3.558,-3.832 8.974,-6.281 15.039,-6.281 10.708,0 19.39,7.621 19.39,17.03 0,9.402 -8.682,17.023 -19.39,17.023 -10.707,0 -19.388,-7.621 -19.388,-17.023 v -37.336 c 0,-6.501 -5.291,-11.769 -11.822,-11.769 V 0 c 0,0.989 0.053,1.967 0.16,2.926 1.591,14.479 14.843,25.771 30.95,25.771 C -13.926,28.697 0,15.85 0,0"
             style="fill:#eb1e25;fill-opacity:1;fill-rule:nonzero;stroke:none"
             id="path38"
             inkscape:connector-curvature="0" /></g><g
           id="g40"
           transform="translate(299.2437,395.6768)"><path
             d="m 0,0 v -34.875 c -6.531,0 -11.821,5.268 -11.821,11.769 V 0 c 0,6.042 -4.905,10.947 -10.953,10.947 -6.041,0 -10.945,-4.905 -10.945,-10.947 v -4.719 h 0.053 v -30.156 c -6.531,0 -11.821,5.268 -11.821,11.769 V 1.562 c -0.018,-0.238 -0.031,-0.471 -0.036,-0.709 -0.435,5.642 -5.155,10.094 -10.916,10.094 -6.042,0 -10.946,-4.905 -10.946,-10.947 v -4.719 h 0.053 v -18.387 c 0,-6.501 -5.291,-11.769 -11.821,-11.769 V 0 c 0,8.575 4.755,16.041 11.768,19.908 3.247,1.787 6.977,2.807 10.946,2.807 3.974,0 7.704,-1.02 10.952,-2.813 2.198,-1.209 4.171,-2.771 5.845,-4.612 1.692,1.871 3.694,3.457 5.923,4.678 3.247,1.781 6.977,2.801 10.945,2.801 3.975,0 7.704,-1.02 10.953,-2.801 C -4.772,16.095 0,8.604 0,0"
             style="fill:#eb1e25;fill-opacity:1;fill-rule:nonzero;stroke:none"
             id="path42"
             inkscape:connector-curvature="0" /></g><g
           id="g44"
           transform="translate(185.4814,372.5674)"><path
             d="m 0,0 c -11.19,0 -20.259,7.645 -20.259,17.083 0,9.433 9.069,17.077 20.259,17.077 11.19,0 20.259,-7.644 20.259,-17.077 C 20.259,7.645 11.19,0 0,0 m -0.298,45.732 c -17.69,0 -32.027,-12.841 -32.027,-28.678 0,-15.832 14.337,-28.673 32.027,-28.673 17.691,0 32.027,12.841 32.027,28.673 0,15.837 -14.336,28.678 -32.027,28.678"
             style="fill:#eb1e25;fill-opacity:1;fill-rule:nonzero;stroke:none"
             id="path46"
             inkscape:connector-curvature="0" /></g><g
           id="g48"
           transform="translate(152.7612,379.709)"><path
             d="m 0,0 c -7.782,-11.404 -21.701,-18.996 -37.568,-18.996 -24.389,0 -44.165,17.941 -44.165,40.071 0,22.13 19.776,40.071 44.165,40.071 17.947,0 33.391,-9.706 40.303,-23.655 -4.672,-3.265 -11.065,-2.735 -15.092,1.323 -0.162,0.178 -0.329,0.357 -0.501,0.536 -5.953,6.227 -14.849,10.177 -24.782,10.177 -17.936,0 -32.474,-12.882 -32.474,-28.774 0,-15.891 14.538,-28.774 32.474,-28.774 9.069,0 17.262,3.291 23.155,8.599 0.012,0.006 0.024,0.018 0.03,0.024 C -10.117,3.712 -4.141,3.492 0,0"
             style="fill:#eb1e25;fill-opacity:1;fill-rule:nonzero;stroke:none"
             id="path50"
             inkscape:connector-curvature="0" /></g></g></g></g></svg>